<mxfile host="app.diagrams.net" modified="2023-11-03T14:40:43.817Z" agent="Mozilla/5.0 (Windows NT 10.0; Win64; x64; rv:109.0) Gecko/20100101 Firefox/119.0" etag="-lC4RNUa6Vwhp6ibnAv9" version="22.0.8" type="device">
  <diagram name="Seite-1" id="-jIZtBU3LUapE1aKfhQ-">
    <mxGraphModel dx="989" dy="513" grid="1" gridSize="10" guides="1" tooltips="1" connect="1" arrows="1" fold="1" page="1" pageScale="1" pageWidth="827" pageHeight="1169" math="0" shadow="0">
      <root>
        <mxCell id="0" />
        <mxCell id="1" parent="0" />
        <mxCell id="6JJ7rRZ3ZzwsYtBZp8-R-8" value="&lt;div&gt;occupies&lt;/div&gt;&lt;div&gt;&lt;br&gt;&lt;/div&gt;" style="edgeStyle=orthogonalEdgeStyle;rounded=0;orthogonalLoop=1;jettySize=auto;html=1;exitX=0.5;exitY=1;exitDx=0;exitDy=0;entryX=0.5;entryY=0;entryDx=0;entryDy=0;" edge="1" parent="1" source="6JJ7rRZ3ZzwsYtBZp8-R-1" target="6JJ7rRZ3ZzwsYtBZp8-R-2">
          <mxGeometry x="0.8" y="30" relative="1" as="geometry">
            <mxPoint as="offset" />
          </mxGeometry>
        </mxCell>
        <mxCell id="6JJ7rRZ3ZzwsYtBZp8-R-1" value="&lt;p style=&quot;margin:0px;margin-top:4px;text-align:center;text-decoration:underline;&quot;&gt;&lt;b&gt;Tom&lt;/b&gt;&lt;br&gt;&lt;/p&gt;&lt;hr&gt;&lt;p style=&quot;margin:0px;margin-left:8px;&quot;&gt;&lt;br&gt;&lt;/p&gt;" style="verticalAlign=top;align=left;overflow=fill;fontSize=12;fontFamily=Helvetica;html=1;whiteSpace=wrap;" vertex="1" parent="1">
          <mxGeometry x="40" y="170" width="160" height="90" as="geometry" />
        </mxCell>
        <mxCell id="6JJ7rRZ3ZzwsYtBZp8-R-16" value="&lt;div&gt;connected&lt;/div&gt;" style="edgeStyle=orthogonalEdgeStyle;rounded=0;orthogonalLoop=1;jettySize=auto;html=1;exitX=1;exitY=0.75;exitDx=0;exitDy=0;entryX=0;entryY=0.75;entryDx=0;entryDy=0;" edge="1" parent="1" source="6JJ7rRZ3ZzwsYtBZp8-R-2" target="6JJ7rRZ3ZzwsYtBZp8-R-6">
          <mxGeometry x="0.0256" y="-13" relative="1" as="geometry">
            <mxPoint as="offset" />
          </mxGeometry>
        </mxCell>
        <mxCell id="6JJ7rRZ3ZzwsYtBZp8-R-2" value="&lt;p style=&quot;margin:0px;margin-top:4px;text-align:center;text-decoration:underline;&quot;&gt;&lt;b&gt;Great Britain&lt;/b&gt;&lt;br&gt;&lt;/p&gt;&lt;hr&gt;&lt;p style=&quot;margin:0px;margin-left:8px;&quot;&gt;troops = 2&lt;br&gt;&lt;/p&gt;" style="verticalAlign=top;align=left;overflow=fill;fontSize=12;fontFamily=Helvetica;html=1;whiteSpace=wrap;" vertex="1" parent="1">
          <mxGeometry x="40" y="480" width="160" height="90" as="geometry" />
        </mxCell>
        <mxCell id="6JJ7rRZ3ZzwsYtBZp8-R-3" value="&lt;p style=&quot;margin:0px;margin-top:4px;text-align:center;text-decoration:underline;&quot;&gt;&lt;b&gt;Sandro&lt;/b&gt;&lt;br&gt;&lt;/p&gt;&lt;hr&gt;&lt;p style=&quot;margin:0px;margin-left:8px;&quot;&gt;&lt;br&gt;&lt;/p&gt;" style="verticalAlign=top;align=left;overflow=fill;fontSize=12;fontFamily=Helvetica;html=1;whiteSpace=wrap;" vertex="1" parent="1">
          <mxGeometry x="320" y="170" width="160" height="90" as="geometry" />
        </mxCell>
        <mxCell id="6JJ7rRZ3ZzwsYtBZp8-R-13" value="connected" style="edgeStyle=orthogonalEdgeStyle;rounded=0;orthogonalLoop=1;jettySize=auto;html=1;exitX=0;exitY=0.5;exitDx=0;exitDy=0;entryX=1;entryY=0.5;entryDx=0;entryDy=0;strokeColor=default;endArrow=none;endFill=0;" edge="1" parent="1" source="6JJ7rRZ3ZzwsYtBZp8-R-5" target="6JJ7rRZ3ZzwsYtBZp8-R-2">
          <mxGeometry x="0.0411" y="30" relative="1" as="geometry">
            <mxPoint as="offset" />
          </mxGeometry>
        </mxCell>
        <mxCell id="6JJ7rRZ3ZzwsYtBZp8-R-5" value="&lt;p style=&quot;margin:0px;margin-top:4px;text-align:center;text-decoration:underline;&quot;&gt;&lt;b&gt;Scandinavia&lt;/b&gt;&lt;/p&gt;&lt;hr&gt;&lt;p style=&quot;margin:0px;margin-left:8px;&quot;&gt;troops = 1&lt;br&gt;&lt;/p&gt;" style="verticalAlign=top;align=left;overflow=fill;fontSize=12;fontFamily=Helvetica;html=1;whiteSpace=wrap;" vertex="1" parent="1">
          <mxGeometry x="320" y="360" width="160" height="90" as="geometry" />
        </mxCell>
        <mxCell id="6JJ7rRZ3ZzwsYtBZp8-R-6" value="&lt;p style=&quot;margin:0px;margin-top:4px;text-align:center;text-decoration:underline;&quot;&gt;&lt;b&gt;Western Europe&lt;/b&gt;&lt;br&gt;&lt;/p&gt;&lt;hr&gt;&lt;p style=&quot;margin:0px;margin-left:8px;&quot;&gt;troops = 0&lt;br&gt;&lt;/p&gt;" style="verticalAlign=top;align=left;overflow=fill;fontSize=12;fontFamily=Helvetica;html=1;whiteSpace=wrap;" vertex="1" parent="1">
          <mxGeometry x="590" y="480" width="160" height="90" as="geometry" />
        </mxCell>
        <mxCell id="6JJ7rRZ3ZzwsYtBZp8-R-9" value="occupies" style="edgeStyle=orthogonalEdgeStyle;rounded=0;orthogonalLoop=1;jettySize=auto;html=1;exitX=0.5;exitY=1;exitDx=0;exitDy=0;" edge="1" parent="1" source="6JJ7rRZ3ZzwsYtBZp8-R-3">
          <mxGeometry x="0.637" y="30" relative="1" as="geometry">
            <mxPoint x="400" y="360" as="targetPoint" />
            <Array as="points">
              <mxPoint x="400" y="360" />
            </Array>
            <mxPoint as="offset" />
          </mxGeometry>
        </mxCell>
        <mxCell id="6JJ7rRZ3ZzwsYtBZp8-R-19" value="&lt;div&gt;enables to take turn&lt;/div&gt;" style="edgeStyle=orthogonalEdgeStyle;rounded=0;orthogonalLoop=1;jettySize=auto;html=1;exitX=0.5;exitY=0;exitDx=0;exitDy=0;entryX=0.5;entryY=0;entryDx=0;entryDy=0;" edge="1" parent="1" source="6JJ7rRZ3ZzwsYtBZp8-R-18" target="6JJ7rRZ3ZzwsYtBZp8-R-1">
          <mxGeometry x="0.737" y="20" relative="1" as="geometry">
            <mxPoint x="120" y="120" as="targetPoint" />
            <Array as="points">
              <mxPoint x="690" y="130" />
              <mxPoint x="120" y="130" />
            </Array>
            <mxPoint as="offset" />
          </mxGeometry>
        </mxCell>
        <mxCell id="6JJ7rRZ3ZzwsYtBZp8-R-18" value="&lt;p style=&quot;margin: 4px 0px 0px; text-align: center; text-decoration: underline; font-size: 11px;&quot;&gt;&lt;font style=&quot;font-size: 11px;&quot;&gt;&lt;b&gt;GameMaster&lt;/b&gt;&lt;br&gt;&lt;/font&gt;&lt;/p&gt;&lt;hr style=&quot;font-size: 11px;&quot;&gt;&lt;p style=&quot;margin: 0px 0px 0px 8px; font-size: 11px;&quot;&gt;&lt;font style=&quot;font-size: 11px;&quot;&gt;moving phase = true&lt;/font&gt;&lt;/p&gt;&lt;p style=&quot;margin: 0px 0px 0px 8px; font-size: 11px;&quot;&gt;&lt;font style=&quot;font-size: 11px;&quot;&gt;reinforcement phase&lt;font style=&quot;font-size: 11px;&quot;&gt; = false&lt;br&gt;&lt;/font&gt;&lt;/font&gt;&lt;/p&gt;" style="verticalAlign=top;align=left;overflow=fill;fontSize=12;fontFamily=Helvetica;html=1;whiteSpace=wrap;" vertex="1" parent="1">
          <mxGeometry x="610" y="280" width="160" height="90" as="geometry" />
        </mxCell>
      </root>
    </mxGraphModel>
  </diagram>
</mxfile>
